<svg xmlns="http://www.w3.org/2000/svg" width="25.368" height="25.232" viewBox="0 0 25.368 25.232"><defs><style>.a{fill:#fff;}</style></defs><g transform="translate(0 -0.269)"><path class="a" d="M24.64,33.25a.665.665,0,0,0-.665.665v5.9a2,2,0,0,1-1.995,1.995H3.324A2,2,0,0,1,1.33,39.819V22.492A2,2,0,0,1,3.324,20.5h5.9a.665.665,0,0,0,0-1.33h-5.9A3.328,3.328,0,0,0,0,22.492V39.819a3.328,3.328,0,0,0,3.324,3.324H21.98A3.328,3.328,0,0,0,25.3,39.819v-5.9A.665.665,0,0,0,24.64,33.25Zm0,0" transform="translate(0 -17.643)"/><path class="a" d="M156.367,42.036l9.708-9.708,3.131,3.131L159.5,45.167Zm0,0" transform="translate(-145.97 -29.928)"/><path class="a" d="M132.543,200.679l3.46-.958-2.5-2.5Zm0,0" transform="translate(-123.73 -183.855)"/><path class="a" d="M319.583.755a1.664,1.664,0,0,0-2.351,0l-.705.705,3.131,3.131.705-.705a1.664,1.664,0,0,0,0-2.351Zm0,0" transform="translate(-295.482)"/></g></svg>