<?xml version="1.0" encoding="utf-8"?>
<!-- Generator: Adobe Illustrator 16.0.0, SVG Export Plug-In . SVG Version: 6.00 Build 0)  -->
<!DOCTYPE svg PUBLIC "-//W3C//DTD SVG 1.1//EN" "http://www.w3.org/Graphics/SVG/1.1/DTD/svg11.dtd">
<svg version="1.1" id="Layer_1" xmlns="http://www.w3.org/2000/svg" xmlns:xlink="http://www.w3.org/1999/xlink" x="0px" y="0px"
	 width="612px" height="792px" viewBox="0 0 612 792" enable-background="new 0 0 612 792" xml:space="preserve">
<g>
	<g>
		<g>
			<path d="M439.675,301.697h-38.864l-38.865-37.721h-77.73l-38.865,37.721h-38.865c0,0-38.865,0-38.865,37.721v113.164
				c0,37.721,38.865,37.721,38.865,37.721s55.014,0,111.9,0c15.673,22.725,42.387,37.721,72.686,37.721
				c37.658-0.029,69.64-23.154,81.98-55.549c5.427-9.762,5.489-19.893,5.489-19.893s0-75.442,0-113.164
				C478.54,301.697,439.675,301.697,439.675,301.697z M303.98,449.35c-22.811-7.668-39.182-28.607-39.182-53.365
				c0-31.224,26.079-56.597,58.313-56.597c18.592,0,35.058,8.56,45.717,21.74c-37.499,9.607-65.165,42.617-65.165,82.001
				C303.664,445.254,303.822,447.285,303.98,449.35z M391.102,508.039c-36.929-0.092-66.816-29.068-66.911-64.91
				c0.095-35.844,29.95-64.85,66.911-64.942c36.898,0.092,66.784,29.067,66.88,64.942C457.886,478.971,428,507.947,391.102,508.039z
				"/>
			<polygon points="400.842,395.985 381.393,395.985 381.393,433.705 342.529,433.705 342.529,452.582 381.393,452.582 
				381.393,490.303 400.842,490.303 400.842,452.582 439.675,452.582 439.675,433.705 400.842,433.705 			"/>
		</g>
	</g>
</g>
</svg>
