<svg xmlns="http://www.w3.org/2000/svg" width="35.997" height="18.983" viewBox="0 0 35.997 18.983"><defs><style>.a{fill:#fff;}</style></defs><g transform="translate(0.001 -121)"><g transform="translate(-0.001 121)"><g transform="translate(0 0)"><path class="a" d="M35.728,129.788C35.406,129.43,27.678,121,18,121S.59,129.43.268,129.788a1.055,1.055,0,0,0,0,1.407c.321.358,8.05,8.788,17.73,8.788s17.408-8.43,17.73-8.788A1.055,1.055,0,0,0,35.728,129.788ZM18,137.874a7.382,7.382,0,1,1,7.382-7.382A7.391,7.391,0,0,1,18,137.874Z" transform="translate(0.001 -121)"/></g></g><g transform="translate(12.725 125.218)"><g transform="translate(0 0)"><path class="a" d="M187.328,184.164a3.154,3.154,0,0,1,1.328-2.568,5.205,5.205,0,0,0-2.382-.6,5.273,5.273,0,1,0,5.183,6.162A3.145,3.145,0,0,1,187.328,184.164Z" transform="translate(-181 -181)"/></g></g></g></svg>