<svg xmlns="http://www.w3.org/2000/svg" xmlns:xlink="http://www.w3.org/1999/xlink" width="746.321" height="720.739" viewBox="0 0 746.321 720.739">
  <defs>
    <clipPath id="clip-path">
      <path id="Path_25425" data-name="Path 25425" d="M267.664,100.992c24.592.1,47.951,20.728,52.162,46.062s-12.33,45.8-36.927,45.7-47.957-20.728-52.164-46.07S243.055,100.887,267.664,100.992Z" transform="translate(-230.08 -100.992)" fill="none"/>
    </clipPath>
    <clipPath id="clip-path-2">
      <path id="Path_25452" data-name="Path 25452" d="M199.363,152.859c21.041.087,41.019,17.731,44.621,39.4s-10.546,39.182-31.587,39.094-41.029-17.735-44.623-39.414S178.312,152.77,199.363,152.859Z" transform="translate(-167.213 -152.859)" fill="none"/>
    </clipPath>
    <clipPath id="clip-path-3">
      <path id="Path_25479" data-name="Path 25479" d="M351.418,148c19.875.085,38.755,16.753,42.156,37.229s-9.964,37.013-29.841,36.931-38.757-16.753-42.16-37.235S331.531,147.917,351.418,148Z" transform="translate(-321.043 -147.999)" fill="none"/>
    </clipPath>
    <clipPath id="clip-path-4">
      <path id="Path_25511" data-name="Path 25511" d="M280.611,196.046c15.866.066,30.936,13.373,33.651,29.716s-7.952,29.545-23.822,29.478-30.94-13.37-33.652-29.721S264.741,195.982,280.611,196.046Z" transform="translate(-256.367 -196.046)" fill="none"/>
    </clipPath>
    <linearGradient id="linear-gradient" x1="0.402" y1="0.692" x2="0.74" y2="0.233" gradientUnits="objectBoundingBox">
      <stop offset="0" stop-color="#0097a9"/>
      <stop offset="1" stop-color="#0aabc3"/>
    </linearGradient>
    <linearGradient id="linear-gradient-2" x1="25.199" y1="0.081" x2="25.349" y2="1.646" gradientUnits="objectBoundingBox">
      <stop offset="0.012" stop-color="#2c002a"/>
      <stop offset="1" stop-color="#2e0131"/>
    </linearGradient>
    <linearGradient id="linear-gradient-3" x1="-112.872" y1="-0.399" x2="-113.871" y2="-0.399" gradientUnits="objectBoundingBox">
      <stop offset="0" stop-color="#a8a8a8"/>
      <stop offset="0.499" stop-color="#bfbfbf"/>
      <stop offset="0.988" stop-color="#d3d3d3"/>
    </linearGradient>
    <linearGradient id="linear-gradient-4" x1="-342.116" y1="-17.819" x2="-342.116" y2="-11.149" xlink:href="#linear-gradient-3"/>
    <linearGradient id="linear-gradient-5" x1="16.47" y1="7.283" x2="19.154" y2="7.864" gradientUnits="objectBoundingBox">
      <stop offset="0" stop-color="#2b2f48"/>
      <stop offset="0.012" stop-color="#2c002a"/>
      <stop offset="1" stop-color="#2e0131"/>
    </linearGradient>
    <linearGradient id="linear-gradient-6" x1="0.5" y1="0.998" x2="0.5" y2="-0.032" gradientUnits="objectBoundingBox">
      <stop offset="0.002" stop-color="#f5d61d"/>
      <stop offset="0.076" stop-color="#f6dc3e"/>
      <stop offset="0.201" stop-color="#f8e571"/>
      <stop offset="0.33" stop-color="#faed9c"/>
      <stop offset="0.458" stop-color="#fcf3c0"/>
      <stop offset="0.587" stop-color="#fdf8db"/>
      <stop offset="0.717" stop-color="#fefcef"/>
      <stop offset="0.848" stop-color="#fefefb"/>
      <stop offset="0.983" stop-color="#fff"/>
    </linearGradient>
    <linearGradient id="linear-gradient-7" y1="0.5" x2="1" y2="0.5" gradientUnits="objectBoundingBox">
      <stop offset="0" stop-color="#f7b502"/>
      <stop offset="0.083" stop-color="#f7ba0e"/>
      <stop offset="0.303" stop-color="#fac529"/>
      <stop offset="0.525" stop-color="#fbce3d"/>
      <stop offset="0.749" stop-color="#fcd349"/>
      <stop offset="0.979" stop-color="#fdd54d"/>
    </linearGradient>
    <linearGradient id="linear-gradient-8" x1="1.333" y1="0.021" x2="-0.051" y2="1.049" gradientUnits="objectBoundingBox">
      <stop offset="0" stop-color="#01ffa4"/>
      <stop offset="1" stop-color="#1b00a6"/>
    </linearGradient>
  </defs>
  <g id="Group_6919" data-name="Group 6919" transform="translate(-3461.854 4305.116)">
    <g id="Group_6918" data-name="Group 6918">
      <g id="Group_6910" data-name="Group 6910">
        <g id="Group_6687" data-name="Group 6687" transform="translate(-40 33)">
          <g id="Group_6680" data-name="Group 6680" transform="translate(-1939 -66)">
            <g id="Group_6672" data-name="Group 6672" transform="translate(5385.446 -4389.186)">
              <g id="Group_6626" data-name="Group 6626" transform="translate(225.998 117.07)">
                <g id="Group_6597" data-name="Group 6597" transform="translate(121.375)">
                  <path id="Path_25399" data-name="Path 25399" d="M216.924,78.22V364.7L385.5,396.778V110.3Z" transform="translate(-206.41 -78.22)" fill="#231f20" opacity="0.1"/>
                  <path id="Path_25400" data-name="Path 25400" d="M211.709,80.987v286.48l168.575,32.078V113.072Z" transform="translate(-211.709 -75.408)" fill="#fff"/>
                  <path id="Path_25401" data-name="Path 25401" d="M221.544,151.5v9l122.689,23.188v-9Z" transform="translate(-201.719 -3.788)" fill="#bcbec0"/>
                  <path id="Path_25402" data-name="Path 25402" d="M221.544,160.619v9l122.689,23.189v-9Z" transform="translate(-201.719 5.478)" fill="#e6e7e8"/>
                  <path id="Path_25403" data-name="Path 25403" d="M221.544,169.744v9l122.689,23.191v-9Z" transform="translate(-201.719 14.746)" fill="#e6e7e8"/>
                  <path id="Path_25404" data-name="Path 25404" d="M221.544,178.868v9.006l122.689,23.187v-8.994Z" transform="translate(-201.719 24.015)" fill="#e6e7e8"/>
                  <path id="Path_25405" data-name="Path 25405" d="M221.544,187.994v9l122.689,23.19v-9Z" transform="translate(-201.719 33.284)" fill="#e6e7e8"/>
                  <path id="Path_25406" data-name="Path 25406" d="M267.664,100.992c24.592.1,47.951,20.728,52.162,46.062s-12.33,45.8-36.927,45.7-47.957-20.728-52.164-46.07S243.055,100.887,267.664,100.992Z" transform="translate(-193.047 -55.089)" fill="#10abd9"/>
                  <path id="Path_25407" data-name="Path 25407" d="M230.106,203.883l-3.014,4.136-5.549.063,3.685,5.234-.413,5.6,5.291-.906,5.293,3.406-.418-5.792,3.688-3.5-5.548-2.673Z" transform="translate(-201.719 49.424)" fill="#ff8d1a"/>
                  <path id="Path_25408" data-name="Path 25408" d="M243.177,206.206l-3.015,4.141-5.549.056,3.686,5.237-.416,5.6,5.294-.9,5.291,3.4-.416-5.788,3.687-3.5-5.55-2.676Z" transform="translate(-188.443 51.783)" fill="#ff8d1a"/>
                  <path id="Path_25409" data-name="Path 25409" d="M256.245,208.528l-3.013,4.141-5.55.056,3.687,5.241-.415,5.6,5.291-.9,5.292,3.4-.414-5.792,3.683-3.492-5.547-2.678Z" transform="translate(-175.168 54.142)" fill="#ff8d1a"/>
                  <path id="Path_25410" data-name="Path 25410" d="M269.314,210.854,266.3,214.99l-5.549.056,3.687,5.238-.414,5.6,5.29-.9,5.294,3.4-.416-5.8,3.685-3.493-5.549-2.675Z" transform="translate(-161.893 56.504)" fill="#ff8d1a"/>
                  <path id="Path_25411" data-name="Path 25411" d="M282.385,213.175l-3.012,4.143-5.552.057,3.688,5.236-.416,5.6,5.292-.906,5.293,3.4-.416-5.8,3.684-3.493-5.548-2.674Z" transform="translate(-148.617 58.862)" fill="#bcbec0"/>
                  <g id="Group_6596" data-name="Group 6596" transform="translate(37.033 45.903)">
                    <g id="Group_6595" data-name="Group 6595" clip-path="url(#clip-path)">
                      <g id="Group_6594" data-name="Group 6594" transform="translate(5.813 10.53)">
                        <g id="Group_6593" data-name="Group 6593">
                          <path id="Path_25412" data-name="Path 25412" d="M285.179,127.079c-.73,13.8-11.4,24.453-23.826,23.792s-21.9-12.385-21.169-26.185,11.119-19.077,23.542-18.416S285.915,113.279,285.179,127.079Z" transform="translate(-225.672 -106.216)" fill="#93533d"/>
                          <g id="Group_6589" data-name="Group 6589" transform="translate(0 49.574)">
                            <path id="Path_25413" data-name="Path 25413" d="M252.1,150.5l-11.439,27.434-7.692-6.6s10.367-40.2,20.518-39.854l.7,21.786Z" transform="translate(-232.964 -130.129)" fill="#f1f2f2"/>
                            <path id="Path_25414" data-name="Path 25414" d="M270.065,130.809l15.777,5.775-1.111,18.89.77,10.919,3.086,36.906s-38.543,6.225-50.553-5.616c0,0,1-37.473,3.28-45.219s6.813-20.313,6.813-20.313Z" transform="translate(-227.813 -130.809)" fill="#32475c"/>
                            <path id="Path_25415" data-name="Path 25415" d="M260.526,163.515l8.19,20.831,8.972-2.288s-3.9-43.313-12.7-48.4l-2.895,5.289a28.976,28.976,0,0,0-1.567,24.568Z" transform="translate(-207.013 -127.911)" fill="#f1f2f2"/>
                          </g>
                          <g id="Group_6590" data-name="Group 6590" transform="translate(16.207 6.038)">
                            <path id="Path_25416" data-name="Path 25416" d="M253.584,150.527h0a6.3,6.3,0,0,0,6.606-5.938l1-18.716a6.3,6.3,0,0,0-5.936-6.606h0a6.3,6.3,0,0,0-6.608,5.94l-.994,18.712a6.3,6.3,0,0,0,5.932,6.608Z" transform="translate(-234.266 -99.007)" fill="#eac3a7"/>
                            <path id="Path_25417" data-name="Path 25417" d="M242.314,117.659c-3.058,11.576-.875,28.958,7.759,31.244s20.5-2.131,23.562-13.707-3.562-21.589-12.2-23.877S245.376,106.082,242.314,117.659Z" transform="translate(-241.004 -109.211)" fill="#f0d0b4"/>
                            <path id="Path_25418" data-name="Path 25418" d="M256.128,123.809c-.873,2.844-.109,5.6,1.7,6.154s3.985-1.306,4.85-4.148.111-5.6-1.7-6.156S257,120.963,256.128,123.809Z" transform="translate(-226.009 -98.698)" fill="#f0d0b4"/>
                            <path id="Path_25419" data-name="Path 25419" d="M256.4,116.172s1.625,6.852-.452,11.935l1.6.363s3.967-8.644,3.638-12.044" transform="translate(-225.82 -102.141)" fill="#93533d"/>
                          </g>
                          <g id="Group_6592" data-name="Group 6592" transform="translate(25.29 48.081)">
                            <path id="Path_25420" data-name="Path 25420" d="M252.186,134.542l4.99,3.551-3.139,6.715-4.024-.215-2.321-7.285Z" transform="translate(-243.294 -125.524)" fill="#32475c"/>
                            <path id="Path_25421" data-name="Path 25421" d="M251.446,139.028l4.261.593,4.245,40.522-7.036,12.047-6.68-13.8Z" transform="translate(-244.774 -120.967)" fill="#32475c"/>
                            <g id="Group_6591" data-name="Group 6591">
                              <path id="Path_25422" data-name="Path 25422" d="M249.875,130.068l-4.365,3,4.3,10.725,4.736-4.644Z" transform="translate(-245.51 -130.068)" fill="#fff"/>
                              <path id="Path_25423" data-name="Path 25423" d="M258.109,130.091l6.24,3.516-9.058,11.248-5.449-5.643Z" transform="translate(-241.111 -130.046)" fill="#fff"/>
                            </g>
                          </g>
                        </g>
                        <path id="Path_25424" data-name="Path 25424" d="M278.735,123.834a45.421,45.421,0,0,1-40.355-.079s1.738-20.085,21.909-15.025S279.1,123.5,279.1,123.5" transform="translate(-227.463 -104.492)" fill="#93533d"/>
                      </g>
                    </g>
                  </g>
                </g>
                <g id="Group_6606" data-name="Group 6606" transform="translate(0 108.094)">
                  <path id="Path_25426" data-name="Path 25426" d="M158.168,131.844V376.911l144.208,27.447V159.289Z" transform="translate(-144.718 -131.844)" fill="#231f20" opacity="0.1"/>
                  <path id="Path_25427" data-name="Path 25427" d="M151.5,135.746v245.07l144.21,27.445V163.193Z" transform="translate(-151.496 -127.881)" fill="#fff"/>
                  <path id="Path_25428" data-name="Path 25428" d="M159.909,196.064v7.7L264.868,223.6v-7.694Z" transform="translate(-142.949 -66.613)" fill="#bcbec0"/>
                  <path id="Path_25429" data-name="Path 25429" d="M159.909,203.868v7.7l104.959,19.84v-7.694Z" transform="translate(-142.949 -58.685)" fill="#e6e7e8"/>
                  <path id="Path_25430" data-name="Path 25430" d="M159.909,211.674v7.7l104.959,19.834v-7.7Z" transform="translate(-142.949 -50.757)" fill="#e6e7e8"/>
                  <path id="Path_25431" data-name="Path 25431" d="M159.909,219.481v7.7l104.959,19.838v-7.7Z" transform="translate(-142.949 -42.827)" fill="#e6e7e8"/>
                  <path id="Path_25432" data-name="Path 25432" d="M159.909,227.287v7.7l104.959,19.84v-7.7Z" transform="translate(-142.949 -34.898)" fill="#e6e7e8"/>
                  <path id="Path_25433" data-name="Path 25433" d="M199.363,152.859c21.041.087,41.019,17.731,44.621,39.4s-10.546,39.182-31.587,39.094-41.029-17.735-44.623-39.414S178.312,152.77,199.363,152.859Z" transform="translate(-135.531 -110.498)" fill="#ff6968"/>
                  <path id="Path_25434" data-name="Path 25434" d="M167.236,240.878l-2.579,3.538-4.748.052,3.152,4.482-.353,4.787,4.527-.772,4.526,2.91-.355-4.956,3.156-2.993-4.75-2.288Z" transform="translate(-142.949 -21.092)" fill="#ff8d1a"/>
                  <path id="Path_25435" data-name="Path 25435" d="M178.415,242.867l-2.58,3.537-4.745.052,3.154,4.478-.356,4.788,4.528-.773,4.528,2.912-.357-4.953,3.153-3-4.748-2.287Z" transform="translate(-131.592 -19.072)" fill="#ff8d1a"/>
                  <path id="Path_25436" data-name="Path 25436" d="M189.594,244.853l-2.575,3.541-4.749.049,3.154,4.482-.357,4.786,4.528-.772,4.529,2.911-.356-4.956,3.154-2.99-4.746-2.292Z" transform="translate(-120.236 -17.055)" fill="#bcbec0"/>
                  <path id="Path_25437" data-name="Path 25437" d="M200.776,246.841l-2.578,3.542-4.748.048,3.154,4.478-.353,4.788,4.525-.774,4.529,2.914-.356-4.957,3.151-2.98-4.747-2.288Z" transform="translate(-108.88 -15.035)" fill="#bcbec0"/>
                  <path id="Path_25438" data-name="Path 25438" d="M211.957,248.83l-2.579,3.537-4.747.049,3.155,4.48-.356,4.8,4.528-.776,4.528,2.909-.355-4.957,3.152-2.99-4.747-2.287Z" transform="translate(-97.523 -13.015)" fill="#bcbec0"/>
                  <g id="Group_6605" data-name="Group 6605" transform="translate(31.682 42.36)">
                    <g id="Group_6604" data-name="Group 6604" clip-path="url(#clip-path-2)">
                      <g id="Group_6603" data-name="Group 6603" transform="translate(4.731 11.554)">
                        <g id="Group_6602" data-name="Group 6602">
                          <path id="Path_25439" data-name="Path 25439" d="M214.6,180.6c-1,12.167-8.75,18.311-19.7,17.418s-19.031-11.482-18.037-23.649S187.149,157.809,198.1,158.7,215.587,168.438,214.6,180.6Z" transform="translate(-162.234 -158.591)" fill="#534741"/>
                          <g id="Group_6598" data-name="Group 6598" transform="translate(0 43.94)">
                            <path id="Path_25440" data-name="Path 25440" d="M186.972,197.471l-10.788,23.935-6.624-6.017s10.157-35.233,19.113-34.673l.071,19.248Z" transform="translate(-169.56 -180.063)" fill="#f1f2f2"/>
                            <path id="Path_25441" data-name="Path 25441" d="M203.67,180.389l13.786,5.493L216,202.534l.4,9.662,1.8,32.657s-34.187,4.531-44.492-6.221c0,0,1.82-33.06,4.025-39.841s6.523-17.765,6.523-17.765Z" transform="translate(-165.334 -180.389)" fill="#e6e7e8"/>
                            <path id="Path_25442" data-name="Path 25442" d="M193.833,209.347l6.714,18.593,7.978-1.79s-2.365-38.344-10-43.046l-2.7,4.6A25.626,25.626,0,0,0,193.833,209.347Z" transform="translate(-146.448 -177.631)" fill="#f1f2f2"/>
                          </g>
                          <g id="Group_6599" data-name="Group 6599" transform="translate(15.933 5.099)">
                            <path id="Path_25443" data-name="Path 25443" d="M188.1,197.7h0a5.558,5.558,0,0,0,5.977-5.078l1.351-16.5a5.567,5.567,0,0,0-5.078-5.985h0a5.567,5.567,0,0,0-5.981,5.082l-1.345,16.5A5.561,5.561,0,0,0,188.1,197.7Z" transform="translate(-171.835 -151.978)" fill="#eac3a7"/>
                            <path id="Path_25444" data-name="Path 25444" d="M178.909,168.362c-3,10.147-1.5,25.548,6.067,27.781s18.152-1.371,21.143-11.514-2.6-19.152-10.176-21.383S181.9,158.217,178.909,168.362Z" transform="translate(-177.464 -161.12)" fill="#f0d0b4"/>
                            <path id="Path_25445" data-name="Path 25445" d="M190.779,174.208c-.837,2.487-.232,4.939,1.353,5.475s3.552-1.052,4.39-3.54.234-4.945-1.351-5.479S191.619,171.714,190.779,174.208Z" transform="translate(-164.322 -151.531)" fill="#f0d0b4"/>
                            <path id="Path_25446" data-name="Path 25446" d="M191.283,167.522s1.264,6.092-.7,10.524l1.4.363s3.715-7.533,3.509-10.544" transform="translate(-164.136 -154.617)" fill="#534741"/>
                          </g>
                          <g id="Group_6601" data-name="Group 6601" transform="translate(23.252 42.308)">
                            <path id="Path_25447" data-name="Path 25447" d="M186.982,183.586l4.318,3.258-2.939,5.852-3.545-.29-1.868-6.486Z" transform="translate(-179.213 -175.509)" fill="#e6e7e8"/>
                            <path id="Path_25448" data-name="Path 25448" d="M186.679,187.518l3.75.627,2.734,35.886-6.512,10.459L181.1,222.144Z" transform="translate(-181.095 -171.515)" fill="#e6e7e8"/>
                            <g id="Group_6600" data-name="Group 6600" transform="translate(0.069)">
                              <path id="Path_25449" data-name="Path 25449" d="M185.06,179.579l-3.93,2.54,3.526,9.578,4.3-3.982Z" transform="translate(-181.129 -179.579)" fill="#fff"/>
                              <path id="Path_25450" data-name="Path 25450" d="M192.406,179.755l5.418,3.262-8.277,9.7-4.67-5.118Z" transform="translate(-177.322 -179.4)" fill="#fff"/>
                            </g>
                          </g>
                        </g>
                        <path id="Path_25451" data-name="Path 25451" d="M205.263,176.937s-14.05-12.387-28.188-3.584c0,0,1.336-17.462,16-12.49,17.4,5.9,16.239,13.514,16.239,13.514" transform="translate(-161.927 -157.188)" fill="#534741"/>
                      </g>
                    </g>
                  </g>
                </g>
                <g id="Group_6615" data-name="Group 6615" transform="translate(311.837 101.699)">
                  <path id="Path_25453" data-name="Path 25453" d="M312.037,128.672V360.215L448.284,386.14V154.6Z" transform="translate(-300.262 -128.672)" fill="#231f20" opacity="0.1"/>
                  <path id="Path_25454" data-name="Path 25454" d="M306.2,131.831V363.374L442.439,389.3V157.761Z" transform="translate(-306.195 -125.463)" fill="#fff"/>
                  <path id="Path_25455" data-name="Path 25455" d="M314.144,188.818v7.274l99.164,18.74V207.56Z" transform="translate(-298.122 -67.578)" fill="#bcbec0"/>
                  <path id="Path_25456" data-name="Path 25456" d="M314.144,196.191v7.276l99.164,18.74v-7.272Z" transform="translate(-298.122 -60.088)" fill="#e6e7e8"/>
                  <path id="Path_25457" data-name="Path 25457" d="M314.144,203.565v7.276l99.164,18.744V222.31Z" transform="translate(-298.122 -52.598)" fill="#e6e7e8"/>
                  <path id="Path_25458" data-name="Path 25458" d="M314.144,210.938v7.283l99.164,18.744v-7.272Z" transform="translate(-298.122 -45.109)" fill="#e6e7e8"/>
                  <path id="Path_25459" data-name="Path 25459" d="M314.144,218.316v7.272l99.164,18.745v-7.274Z" transform="translate(-298.122 -37.615)" fill="#e6e7e8"/>
                  <path id="Path_25460" data-name="Path 25460" d="M351.418,148c19.875.085,38.755,16.753,42.156,37.229s-9.964,37.013-29.841,36.931-38.757-16.753-42.16-37.235S331.531,147.917,351.418,148Z" transform="translate(-291.113 -109.04)" fill="#00a79d"/>
                  <path id="Path_25461" data-name="Path 25461" d="M321.063,231.158,318.63,234.5l-4.486.045,2.98,4.235-.338,4.528,4.277-.735,4.278,2.754-.336-4.682,2.978-2.829-4.484-2.158Z" transform="translate(-298.122 -24.571)" fill="#ff8d1a"/>
                  <path id="Path_25462" data-name="Path 25462" d="M331.629,233.035l-2.438,3.347-4.484.044,2.978,4.234-.337,4.527,4.28-.727,4.276,2.747-.338-4.68,2.981-2.829-4.485-2.16Z" transform="translate(-287.392 -22.665)" fill="#00a79d"/>
                  <path id="Path_25463" data-name="Path 25463" d="M342.19,234.913l-2.435,3.345-4.485.048,2.981,4.236-.337,4.523,4.276-.727,4.279,2.746-.34-4.679,2.981-2.826-4.485-2.16Z" transform="translate(-276.663 -20.757)" fill="#00a79d"/>
                  <path id="Path_25464" data-name="Path 25464" d="M352.753,236.792l-2.435,3.344-4.486.049,2.98,4.228-.336,4.527,4.276-.728,4.279,2.75-.336-4.687,2.978-2.818-4.484-2.168Z" transform="translate(-265.935 -18.848)" fill="#00a79d"/>
                  <path id="Path_25465" data-name="Path 25465" d="M363.316,238.671l-2.437,3.344-4.483.044,2.978,4.236-.337,4.524,4.279-.728,4.278,2.743-.336-4.68,2.979-2.825-4.487-2.164Z" transform="translate(-255.204 -16.939)" fill="#bcbec0"/>
                  <g id="Group_6614" data-name="Group 6614" transform="translate(29.93 38.958)">
                    <g id="Group_6613" data-name="Group 6613" clip-path="url(#clip-path-3)">
                      <g id="Group_6612" data-name="Group 6612" transform="translate(3.722 10.6)">
                        <g id="Group_6611" data-name="Group 6611">
                          <path id="Path_25466" data-name="Path 25466" d="M370.1,172.124c-.661,12.482-10.307,22.111-21.542,21.514s-19.811-11.2-19.146-23.679,10.055-17.251,21.29-16.652S370.77,159.647,370.1,172.124Z" transform="translate(-316.298 -153.257)" fill="#32475c"/>
                          <g id="Group_6607" data-name="Group 6607" transform="translate(0 44.83)">
                            <path id="Path_25467" data-name="Path 25467" d="M340.185,193.3l-10.343,24.806-6.952-5.969s9.371-36.348,18.551-36.036l.633,19.7Z" transform="translate(-322.89 -174.881)" fill="#f1f2f2"/>
                            <path id="Path_25468" data-name="Path 25468" d="M356.437,175.5l14.263,5.22-1,17.079.7,9.875,2.788,33.373s-34.853,5.624-45.7-5.076c0,0,.9-33.891,2.963-40.894s6.158-18.368,6.158-18.368Z" transform="translate(-318.231 -175.497)" fill="#10abd9"/>
                            <path id="Path_25469" data-name="Path 25469" d="M347.809,205.07l7.408,18.833,8.113-2.064s-3.532-39.17-11.48-43.762l-2.629,4.783A26.233,26.233,0,0,0,347.809,205.07Z" transform="translate(-299.425 -172.876)" fill="#f1f2f2"/>
                          </g>
                          <g id="Group_6608" data-name="Group 6608" transform="translate(14.655 5.462)">
                            <path id="Path_25470" data-name="Path 25470" d="M341.535,193.326h0a5.7,5.7,0,0,0,5.973-5.368l.9-16.924a5.7,5.7,0,0,0-5.37-5.975h0a5.7,5.7,0,0,0-5.971,5.374l-.9,16.92a5.692,5.692,0,0,0,5.368,5.973Z" transform="translate(-324.067 -146.74)" fill="#eac3a7"/>
                            <path id="Path_25471" data-name="Path 25471" d="M331.345,163.6c-2.766,10.472-.792,26.189,7.013,28.251s18.541-1.925,21.309-12.391-3.221-19.525-11.034-21.591S334.111,153.137,331.345,163.6Z" transform="translate(-330.16 -155.967)" fill="#f0d0b4"/>
                            <path id="Path_25472" data-name="Path 25472" d="M343.833,169.166c-.788,2.574-.1,5.064,1.542,5.566s3.6-1.179,4.386-3.749.1-5.066-1.538-5.568S344.621,166.592,343.833,169.166Z" transform="translate(-316.603 -146.461)" fill="#f0d0b4"/>
                            <path id="Path_25473" data-name="Path 25473" d="M344.082,162.261s1.472,6.194-.4,10.792l1.449.325s3.582-7.813,3.286-10.889" transform="translate(-316.431 -149.574)" fill="#32475c"/>
                          </g>
                          <g id="Group_6610" data-name="Group 6610" transform="translate(22.866 43.479)">
                            <path id="Path_25474" data-name="Path 25474" d="M340.269,178.872l4.514,3.212-2.838,6.074-3.635-.194-2.1-6.588Z" transform="translate(-332.229 -170.718)" fill="#e6e7e8"/>
                            <path id="Path_25475" data-name="Path 25475" d="M339.6,182.929l3.85.535,3.844,36.643L340.933,231l-6.044-12.478Z" transform="translate(-333.568 -166.597)" fill="#e6e7e8"/>
                            <g id="Group_6609" data-name="Group 6609">
                              <path id="Path_25476" data-name="Path 25476" d="M338.18,174.827l-3.947,2.714,3.887,9.7,4.282-4.2Z" transform="translate(-334.233 -174.827)" fill="#fff"/>
                              <path id="Path_25477" data-name="Path 25477" d="M345.628,174.847l5.639,3.179-8.193,10.17-4.923-5.1Z" transform="translate(-330.254 -174.806)" fill="#fff"/>
                            </g>
                          </g>
                        </g>
                        <path id="Path_25478" data-name="Path 25478" d="M362.671,169.191s-13.679,9.6-33.266-.075c0,0-1.653-18.162,16.592-13.584s17.009,13.356,17.009,13.356" transform="translate(-316.312 -151.699)" fill="#32475c"/>
                      </g>
                    </g>
                  </g>
                </g>
                <g id="Group_6625" data-name="Group 6625" transform="translate(187.505 206.413)">
                  <path id="Path_25480" data-name="Path 25480" d="M249.179,180.62V365.435l108.749,20.7V201.318Z" transform="translate(-239.778 -180.62)" fill="#231f20" opacity="0.1"/>
                  <path id="Path_25481" data-name="Path 25481" d="M244.515,183.142V367.956l108.752,20.7V203.84Z" transform="translate(-244.515 -178.058)" fill="#fff"/>
                  <path id="Path_25482" data-name="Path 25482" d="M250.859,228.628v5.8l79.15,14.962v-5.806Z" transform="translate(-238.071 -131.855)" fill="#bcbec0"/>
                  <path id="Path_25483" data-name="Path 25483" d="M250.859,234.515v5.8l79.15,14.962v-5.8Z" transform="translate(-238.071 -125.875)" fill="#e6e7e8"/>
                  <path id="Path_25484" data-name="Path 25484" d="M250.859,240.4v5.811l79.15,14.958v-5.8Z" transform="translate(-238.071 -119.899)" fill="#e6e7e8"/>
                  <path id="Path_25485" data-name="Path 25485" d="M250.859,246.284V252.1l79.15,14.963v-5.807Z" transform="translate(-238.071 -113.92)" fill="#e6e7e8"/>
                  <path id="Path_25486" data-name="Path 25486" d="M250.859,252.172v5.809l79.15,14.961v-5.807Z" transform="translate(-238.071 -107.94)" fill="#e6e7e8"/>
                  <path id="Path_25487" data-name="Path 25487" d="M280.611,196.046c15.866.066,30.936,13.373,33.651,29.716s-7.952,29.545-23.822,29.478-30.94-13.37-33.652-29.721S264.741,195.982,280.611,196.046Z" transform="translate(-232.477 -164.95)" fill="#f15a29"/>
                  <path id="Path_25488" data-name="Path 25488" d="M256.383,262.424l-1.943,2.669-3.581.042,2.379,3.376-.269,3.61,3.413-.587,3.416,2.2-.27-3.738,2.379-2.254-3.583-1.724Z" transform="translate(-238.071 -97.526)" fill="#ff8d1a"/>
                  <path id="Path_25489" data-name="Path 25489" d="M264.815,263.924l-1.945,2.667-3.579.033,2.377,3.382-.269,3.612,3.415-.581,3.412,2.193-.27-3.736,2.382-2.26-3.583-1.724Z" transform="translate(-229.506 -96.003)" fill="#ff8d1a"/>
                  <path id="Path_25490" data-name="Path 25490" d="M273.245,265.42l-1.944,2.671-3.579.038,2.379,3.382-.269,3.608,3.412-.583,3.415,2.2-.27-3.736,2.379-2.254-3.581-1.729Z" transform="translate(-220.942 -94.483)" fill="#bcbec0"/>
                  <path id="Path_25491" data-name="Path 25491" d="M281.678,266.921l-1.945,2.669-3.581.038,2.379,3.38-.269,3.61,3.416-.579,3.414,2.191-.267-3.74,2.376-2.25-3.58-1.729Z" transform="translate(-212.379 -92.958)" fill="#bcbec0"/>
                  <path id="Path_25492" data-name="Path 25492" d="M290.111,268.421l-1.946,2.667-3.581.033,2.379,3.386-.269,3.608,3.416-.579,3.415,2.191-.269-3.738,2.379-2.258-3.583-1.721Z" transform="translate(-203.815 -91.435)" fill="#bcbec0"/>
                  <g id="Group_6624" data-name="Group 6624" transform="translate(23.89 31.096)">
                    <g id="Group_6623" data-name="Group 6623" clip-path="url(#clip-path-4)">
                      <g id="Group_6622" data-name="Group 6622" transform="translate(4.693 6.514)">
                        <g id="Group_6621" data-name="Group 6621">
                          <g id="Group_6620" data-name="Group 6620">
                            <path id="Path_25493" data-name="Path 25493" d="M293.311,213.185c-.583,9.069-7.686,16-15.852,15.471s-14.32-8.315-13.735-17.388,7.458-12.467,15.63-11.937S293.9,204.11,293.311,213.185Z" transform="translate(-253.627 -199.278)" fill="#886745"/>
                            <g id="Group_6616" data-name="Group 6616" transform="translate(0 32.666)">
                              <path id="Path_25494" data-name="Path 25494" d="M271.441,228.345l-7.73,17.966-5.015-4.4s7.126-26.366,13.8-26.066l.3,14.34Z" transform="translate(-258.695 -215.122)" fill="#f1f2f2"/>
                              <path id="Path_25495" data-name="Path 25495" d="M283.517,215.483l10.337,3.917-.873,12.417.421,7.19,1.75,24.308s-25.407,3.8-33.216-4.084c0,0,.943-24.643,2.5-29.72s4.632-13.314,4.632-13.314Z" transform="translate(-255.403 -215.483)" fill="#32475c"/>
                              <path id="Path_25496" data-name="Path 25496" d="M276.812,237.021l5.227,13.768,5.92-1.437s-2.242-28.525-7.984-31.934l-1.951,3.453A19.092,19.092,0,0,0,276.812,237.021Z" transform="translate(-241.558 -213.518)" fill="#f1f2f2"/>
                            </g>
                            <g id="Group_6617" data-name="Group 6617" transform="translate(11.163 3.899)">
                              <path id="Path_25497" data-name="Path 25497" d="M272.366,228.427h0a4.147,4.147,0,0,0,4.388-3.862l.8-12.3a4.149,4.149,0,0,0-3.858-4.392h0a4.143,4.143,0,0,0-4.39,3.86l-.8,12.3a4.152,4.152,0,0,0,3.86,4.394Z" transform="translate(-259.901 -194.458)" fill="#eac3a7"/>
                              <path id="Path_25498" data-name="Path 25498" d="M265.178,206.7c-2.1,7.6-.8,19.045,4.868,20.617a12.808,12.808,0,0,0,15.6-8.837c2.1-7.591-2.177-14.235-7.845-15.8S267.279,199.11,265.178,206.7Z" transform="translate(-264.233 -201.212)" fill="#f0d0b4"/>
                              <path id="Path_25499" data-name="Path 25499" d="M274.166,210.875c-.591,1.865-.111,3.683,1.078,4.062s2.629-.828,3.225-2.687.113-3.687-1.074-4.068S274.761,209.01,274.166,210.875Z" transform="translate(-254.4 -194.203)" fill="#f0d0b4"/>
                              <path id="Path_25500" data-name="Path 25500" d="M274.428,205.87s1.018,4.519-.385,7.849l1.048.246s2.675-5.654,2.483-7.892" transform="translate(-254.268 -196.481)" fill="#886745"/>
                            </g>
                            <g id="Group_6619" data-name="Group 6619" transform="translate(17.491 31.586)">
                              <path id="Path_25501" data-name="Path 25501" d="M271.479,217.907l3.258,2.375-2.116,4.4-2.644-.172L268.5,219.7Z" transform="translate(-266.224 -211.941)" fill="#32475c"/>
                              <path id="Path_25502" data-name="Path 25502" d="M271.1,220.851l2.8.42,2.487,26.689-4.722,7.875-4.292-9.129Z" transform="translate(-267.372 -208.95)" fill="#32475c"/>
                              <g id="Group_6618" data-name="Group 6618" transform="translate(0.031)">
                                <path id="Path_25503" data-name="Path 25503" d="M269.7,214.947l-2.314.819,1.187,9.069,4.13-3.878Z" transform="translate(-267.388 -214.947)" fill="#fff"/>
                                <path id="Path_25504" data-name="Path 25504" d="M275.432,215.011l2.025,1.17-2.975,9.671-4.555-4.908Z" transform="translate(-264.809 -214.883)" fill="#fff"/>
                              </g>
                            </g>
                          </g>
                          <path id="Path_25505" data-name="Path 25505" d="M289.075,211.021a29.868,29.868,0,0,1-26.546-.359s1.292-13.2,14.532-9.718,12.262,9.865,12.262,9.865" transform="translate(-254.801 -198.18)" fill="#886745"/>
                          <path id="Path_25506" data-name="Path 25506" d="M281.323,206.345a23.217,23.217,0,0,1-17.813,6.132s-2.042-8.3,7.42-9.508,10.5,3.171,10.5,3.171" transform="translate(-253.993 -195.743)" fill="#886745"/>
                          <path id="Path_25507" data-name="Path 25507" d="M282.55,206.219a23.213,23.213,0,0,1-17.376,7.279s-2.58-8.152,6.785-9.972,10.679,2.483,10.679,2.483" transform="translate(-252.445 -195.418)" fill="#886745"/>
                          <path id="Path_25508" data-name="Path 25508" d="M284.457,205.287a23.2,23.2,0,0,1-16.483,9.127s-3.451-7.821,5.66-10.647,10.887,1.3,10.887,1.3" transform="translate(-249.921 -195.723)" fill="#886745"/>
                        </g>
                        <path id="Path_25509" data-name="Path 25509" d="M269.264,244l8.865-28.407,6.744,5.378-6.091,7.359,2.329,4.538Z" transform="translate(-247.959 -182.707)" fill="#1b2b38"/>
                        <path id="Path_25510" data-name="Path 25510" d="M273.645,244.24l-3.783-28.886-4.911,5.508,4.018,5.434-3.125,4.855Z" transform="translate(-252.34 -182.948)" fill="#1b2b38"/>
                      </g>
                    </g>
                  </g>
                </g>
              </g>
            </g>
            <g id="Group_6673" data-name="Group 6673" transform="translate(5440.861 -3964.465)">
              <ellipse id="Ellipse_903" data-name="Ellipse 903" cx="12.975" cy="17.965" rx="12.975" ry="17.965" transform="translate(50.995 7.5)" fill="#f7cfa4"/>
              <g id="Group_6138" data-name="Group 6138" transform="translate(0 67.09)">
                <path id="Path_24750" data-name="Path 24750" d="M-580.717-383.79a8.12,8.12,0,0,0,2.529,10.607A6.071,6.071,0,0,0-575.3-372.1c5.818.519,8.891-8.616,23.439-26.732,9.351-11.644,12.438-15.2,12.438-15.2,7.65-8.812,12.1-13.006,11.808-19.017a14.345,14.345,0,0,0-3.274-8.04,6.8,6.8,0,0,0-3.093-1.676c-3.2-.711-6.209,1.417-8.049,2.869-10.238,8.077-19.444,22.894-23.67,29.877-.393.65-1.421,2.352-2.964,4.964C-573.64-396.639-577.674-389.4-580.717-383.79Z" transform="translate(581.713 442.91)" fill="#efaf70"/>
                <path id="Path_24751" data-name="Path 24751" d="M-603.969-382.071c2-2.771,7.186-2.617,10.883-1.382,5.247,1.754,7.783,5.778,12.132,10.735,6.939,7.908,13.7,12.731,19.279,16.706,3.453,2.461,16.053,11.118,25.43,16.463a16.787,16.787,0,0,1,6.473,5.94c.474.821,2.614,4.217,1.573,5.462-.456.545-2.5,1.85-23.455-9.235-6.875-3.636-12.637-6.941-21.877-12.473C-594.6-362.472-597.56-366.969-602.4-371.92-605.38-374.97-606.04-379.2-603.969-382.071Z" transform="translate(605.483 442.91)" fill="#efaf70"/>
                <path id="Path_24752" data-name="Path 24752" d="M-606.626-326.279c2.285,2.772,4.724,5.669,7.8,7.14a3.971,3.971,0,0,0,2.995.442c1.622-.641,1.587-3.074,1.054-5.07a25.009,25.009,0,0,0-8.475-12.755,5.826,5.826,0,0,0-3.558-1.6,2.931,2.931,0,0,0-1.658.691,5.747,5.747,0,0,0-1.726,5.423C-609.833-329.662-608.164-328.145-606.626-326.279Z" transform="translate(677.125 442.91)" fill="#efaf70"/>
              </g>
              <path id="Path_24753" data-name="Path 24753" d="M-565.464-128.86l-6.673,7.957c-.625-16.943-1.083-30.976-2.306-40.063-2.649-19.692-4.126-27.753-4.9-43.02-.767-15.1,4.205-28.8,5.466-36.02,1.206-3.59,15.381,1.164,16.94,4.975C-553.408-226.4-565.464-128.86-565.464-128.86Z" transform="translate(608.112 510)" fill="#efaf70"/>
              <path id="Path_24754" data-name="Path 24754" d="M-561.2-118.157l-24.564-1.978a4.7,4.7,0,0,1-4.515-3.621l-.152-.534a3.046,3.046,0,0,1,1.456-3.571l9.357-3.009,15.554,6.412C-560.1-124.68-560.574-118.173-561.2-118.157Z" transform="translate(623.729 510)" fill="#032349"/>
              <rect id="Rectangle_2324" data-name="Rectangle 2324" width="7.699" height="2.051" transform="translate(35.92 388.994) rotate(2.808)" fill="#032349"/>
              <path id="Path_24755" data-name="Path 24755" d="M-613.877-128.388l-8.024,7.031c1.851-16.9,3.445-30.887,3.526-40.066.176-19.889-.154-28.082,1.3-43.336,1.435-15.091,8.555-28.037,10.913-35.041,1.766-3.407,15.624,3.154,16.665,7.14C-587.147-223.638-613.877-128.388-613.877-128.388Z" transform="translate(683.652 510)" fill="#f7c589"/>
              <path id="Path_24756" data-name="Path 24756" d="M-588.64-118.431l-27.858-1.463a5.313,5.313,0,0,1-5.221-3.526l-.189-.531a2.886,2.886,0,0,1,1.538-3.6l10.5-3.2,17.8,6.085C-587.6-124.976-587.935-118.46-588.64-118.431Z" transform="translate(682.694 510)" fill="#032349"/>
              <path id="Path_24757" data-name="Path 24757" d="M-597.774-227.106c-1.311.26-2.392-.071-6.58-1.553-3.615-1.279-6.78-2.436-9.391-3.408,1.6-14.012-.3-24.364-2.375-31.3-1.644-5.488-3.287-8.454-5.323-15.663a108.907,108.907,0,0,1-3.959-24.154,39.134,39.134,0,0,1,7.371-8.912c2.379-2.13,3.783-3.251,5.741-3.572a8.864,8.864,0,0,1,10.152,7.293,138.578,138.578,0,0,1,10.855,36.8,138.516,138.516,0,0,1,.8,34.318C-591.219-234.572-593.365-227.981-597.774-227.106Z" transform="translate(687.575 510)" fill="#f7c589"/>
              <rect id="Rectangle_2325" data-name="Rectangle 2325" width="8.717" height="2.051" transform="matrix(0.996, 0.094, -0.094, 0.996, 63.706, 389.514)" fill="#032349"/>
              <path id="Path_24758" data-name="Path 24758" d="M-598.258-416.942c0,4.951-3.261,8.965-7.285,8.965s-7.284-4.014-7.284-8.965,3.261-8.966,7.284-8.966S-598.258-421.894-598.258-416.942Z" transform="translate(683.481 510)" fill="#1156a8"/>
              <path id="Path_24759" data-name="Path 24759" d="M-572.8-224.852c-1.336.045-2.349-.457-6.242-2.6-3.361-1.847-6.3-3.5-8.716-4.883,3.844-13.568,3.649-24.091,2.72-31.276-.735-5.681-1.877-8.874-2.72-16.317a108.963,108.963,0,0,1,0-24.477,39.156,39.156,0,0,1,8.716-7.6c2.692-1.717,4.259-2.6,6.242-2.6a8.865,8.865,0,0,1,8.839,8.839,138.58,138.58,0,0,1,4.76,38.075,138.52,138.52,0,0,1-4.76,34C-565.122-231.159-568.307-225-572.8-224.852Z" transform="translate(620.027 510)" fill="#efaf70"/>
              <path id="Path_24760" data-name="Path 24760" d="M-573.1-366.51l-35.226.08a29.8,29.8,0,0,0,2.725-6.8c2.927-11.159-2.048-20.213-4.482-29.138a84.128,84.128,0,0,1-2.242-31.38H-573.1c-5.716,14.041-5.643,24.435-4.483,31.38,1.109,6.642,4.128,15.615,4.483,30.259C-573.041-369.733-573.068-367.778-573.1-366.51Z" transform="translate(658.322 510)" fill="#2c3049"/>
              <path id="Path_24761" data-name="Path 24761" d="M-553.507-241.573a108.385,108.385,0,0,1-40.463,7.739,108.55,108.55,0,0,1-39.237-7.738,174.733,174.733,0,0,0,3.679-27.085c.952-16.616-.758-27.81-1.226-34.823-.932-13.931,5.315-37.322,21.083-66.393,13.441,0,23.035,2.551,36.477,2.551.719,3.815,1.588,8.741,2.465,14.6.488,3.261.881,6.16,1.2,8.711.077.614.742,5.858,1.3,11.509,2.274,22.784,2.167,44.631,8.006,62.85.411,1.284,1.2,3.619,2.2,7.163a170.052,170.052,0,0,1,4.516,20.916Z" transform="translate(659.11 510)" fill="#030822"/>
              <path id="Path_24762" data-name="Path 24762" d="M-601.921-465.366c-3.714,5.963-6.712,13.836-2.791,19.727,2.385,3.583,6.941,5.664,8.768,9.739,3.468,7.739-4.659,17.282-3.276,26.538.78,5.216,4.45,9.376,6.281,14.511a23.312,23.312,0,0,1,1.113,10.091,8.455,8.455,0,0,0,3.839,7.989,8.455,8.455,0,0,0,8.861.172,39.469,39.469,0,0,0,8.107-6.256c7.039-7.1,11.065-17.662,9.059-27.306-.6-2.9-2.936-5.834-2.073-8.519,4.682-14.571,17.7-24.633,8.73-37.863-3.5-5.165,5.224-12.794,3.131-18.1-3.728-9.454-14.732-14.554-9.2-23.334,4.872-7.74-9.885-13.685-19.72-11.6-8.294,1.754-16.6,9.572-16.116,16.5.32,4.568,3.32,8.373,2.6,13.39C-595.323-474.7-599.039-469.993-601.921-465.366Z" transform="translate(630.791 510)" fill="#242424"/>
              <g id="Group_6139" data-name="Group 6139" transform="translate(65.744 19.941)">
                <path id="Path_24763" data-name="Path 24763" d="M-603.786-398.574a8.12,8.12,0,0,0,9.911-4.546,6.055,6.055,0,0,0,.5-3.039c-.622-5.808-10.181-7.044-30.783-17.787-13.241-6.906-17.33-9.242-17.33-9.242-10.132-5.788-15.113-9.342-20.951-7.88a14.342,14.342,0,0,0-7.249,4.776,6.811,6.811,0,0,0-1.042,3.36c-.074,3.28,2.6,5.815,4.38,7.337,9.916,8.47,26.242,14.615,33.914,17.4.713.259,2.583.936,5.446,1.941C-617.767-403.015-609.884-400.466-603.786-398.574Z" transform="translate(670.735 490.059)" fill="#f7cfa4"/>
                <path id="Path_24764" data-name="Path 24764" d="M-697.068-399.416c-3.106-1.419-3.965-6.54-3.473-10.407.7-5.488,4.152-8.758,8.168-13.989,6.406-8.346,9.82-15.919,12.633-22.162,1.742-3.866,7.78-17.91,11.2-28.148a16.8,16.8,0,0,1,4.566-7.506c.714-.625,3.628-3.385,5.052-2.607.623.342,2.3,2.092-4.493,24.8-2.228,7.451-4.348,13.746-7.976,23.886-8.274,23.121-12.108,26.9-16.023,32.611C-689.828-399.415-693.845-397.944-697.068-399.416Z" transform="translate(765.601 490.059)" fill="#f7cfa4"/>
                <path id="Path_24765" data-name="Path 24765" d="M-695.711-477.942c3.881-4.76,4.121-6.453,4.171-7.258a4.792,4.792,0,0,0-1-3.659,4.4,4.4,0,0,0-3.016-1.2c-4.263-.179-7.763,4.759-10.862,10.795a5.826,5.826,0,0,0-.873,3.8,2.932,2.932,0,0,0,1,1.491,5.743,5.743,0,0,0,5.655.638C-700.137-473.509-698.958-473.961-695.711-477.942Z" transform="translate(805.541 490.059)" fill="#f7cfa4"/>
              </g>
            </g>
            <g id="Group_6676" data-name="Group 6676" transform="translate(5984.738 -3981.323)">
              <g id="Group_6539" data-name="Group 6539" transform="translate(39.362 74.89)">
                <path id="Path_25321" data-name="Path 25321" d="M604.374,394.173c-38.4-23.309-69.571-40.992-69.571-40.992l-.387-8.354s38.159,15.815,79.912,36.734c0,0,4.64,3.2.209,10.386C610.351,398.726,604.513,394.256,604.374,394.173Z" transform="translate(-505.507 -297.47)" fill="#ffb583"/>
                <path id="Path_25322" data-name="Path 25322" d="M594.3,356.885c-11.762,3.042-12.107-7.742-17.995-8.785-5.21-.923-10.433,5.649-12.021,3.162-.685-1.083,7-9.965,16.313-8.239,6.329,1.164,12.439,1.935,14.375,7.13C597.748,357.607,598.318,355.849,594.3,356.885Z" transform="translate(-564.241 -300.742)" fill="#ffb583"/>
                <path id="Path_25323" data-name="Path 25323" d="M550.141,333.413s-5.338,34.511-24,76.656c0,0-2.733,7.075,4.378,10.5,7.551,3.628,10.666-3.141,10.666-3.141.079-.144.172-.3.256-.455,20.369-38.348,27.221-74.417,22.956-82.3C560.124,326.751,552.254,327.282,550.141,333.413Z" transform="translate(-431.65 -323.412)" fill="#ffb583"/>
                <path id="Path_25324" data-name="Path 25324" d="M523.8,380.566a4.61,4.61,0,0,1,2.833-3.761l61.123,26.251c3.97-12.408,13.8-45.5,15.7-59.915,1.946-14.728,7.765-17.262,17.7-16.213,4.177.439,7.114,6.962,8.071,12.591,1.9,11.152-13.825,54.108-21.52,70.975a58.342,58.342,0,0,1-6.79,10.938c-7.174,9.481-11.244,4.03-25.739-4.9S523.8,385.8,523.8,385.8A12.33,12.33,0,0,1,523.8,380.566Z" transform="translate(-489.973 -326.72)" fill="url(#linear-gradient)"/>
                <path id="Path_25325" data-name="Path 25325" d="M523.8,380.566a4.61,4.61,0,0,1,2.833-3.761l61.123,26.251c3.97-12.408,13.8-45.5,15.7-59.915,1.946-14.728,7.765-17.262,17.7-16.213,4.177.439,7.114,6.962,8.071,12.591,1.9,11.152-13.825,54.108-21.52,70.975a58.342,58.342,0,0,1-6.79,10.938c-7.174,9.481-11.244,4.03-25.739-4.9S523.8,385.8,523.8,385.8A12.33,12.33,0,0,1,523.8,380.566Z" transform="translate(-489.973 -326.72)" fill="#fff"/>
              </g>
              <path id="Path_25326" data-name="Path 25326" d="M549.971,339.668c-15.055,5.3-23.348-2.584-22.723-10.169s.858-19.074,15.952-24.475c7.3-2.615,21.525-9.285,27.326-6.089s8.482,11.73,13.653,12.98,11.343,4.635,11.654,11.3-5.014,6.852-4.159,14.728-2.668,13.619-9.494,16.3S571.514,332.089,549.971,339.668Z" transform="translate(-426.702 -298.086)" fill="#040404"/>
              <g id="Group_6542" data-name="Group 6542" transform="translate(132.461 169.364)">
                <g id="Group_6540" data-name="Group 6540">
                  <path id="Path_25327" data-name="Path 25327" d="M548.824,363.573c-5.008,17.068-19.715,57.679-29.921,89.647,0,0-6.56,18.282,5.707,23.246,17.591,7.106,23.147-11.228,23.147-11.228,4.567-9.494,27.242-62.873,30.18-75.024C582.432,374.49,563.329,363.963,548.824,363.573Z" transform="translate(-515.601 -361.66)" fill="#ff9d5a"/>
                  <path id="Path_25328" data-name="Path 25328" d="M558.191,364.412c13.718,4.661,27.091,11.024,21.319,30.287s-26.33,69.432-32.866,78.929-21.475,10.478-27.705.194,1.75-26.385,9.117-48.875,19.558-61.426,20.5-61.892S553.488,362.819,558.191,364.412Z" transform="translate(-516.698 -362.841)" fill="#2b2f48"/>
                </g>
                <g id="Group_6541" data-name="Group 6541" transform="translate(0.137 84.037)">
                  <path id="Path_25329" data-name="Path 25329" d="M546.837,405.431s-3.078-15.248-21.358-7.755c-13.864,5.681-6.866,23.714-6.866,23.714,22.414,55.1,47.635,131.578,50.452,139.487L576.8,555.4C574.215,548.025,554.945,455.8,546.837,405.431Z" transform="translate(-513.134 -393.95)" fill="#ff9d5a"/>
                  <path id="Path_25330" data-name="Path 25330" d="M531.467,395.7c17.037-3.745,22.184,7.315,25,24.729s11.448,63.383,14.939,80.977,7.765,35.544,7.765,35.544-.615,3.575-6.11,5.388-7.637.86-7.637.86-18.491-49.429-25.072-67.12-21.8-44.047-22.618-60.242S524.929,397.137,531.467,395.7Z" transform="translate(-517.676 -394.972)" fill="#2b2f48"/>
                </g>
                <path id="Path_25331" data-name="Path 25331" d="M558.316,454.774c-1.653-1.19-21.944,5.749-34.017,9.452s-14.531,11.749,1.308,10.833,29.931-1.737,29.931-1.737,9.031.149,7.554-5.2C561.753,463.342,559.822,455.909,558.316,454.774Z" transform="translate(-493.279 -214.549)" fill="#050505"/>
              </g>
              <g id="Group_6543" data-name="Group 6543" transform="translate(98.273 173.671)">
                <path id="Path_25332" data-name="Path 25332" d="M572.557,365.231c-7.551,16.119-28.263,54.017-43.2,84.063,0,0-9.272,17.071,2.108,23.835,16.3,9.706,24.577-7.569,24.577-7.569,5.961-8.694,36.5-58.005,41.243-69.566C604.117,381.141,586.837,367.828,572.557,365.231Z" transform="translate(-524.229 -363.289)" fill="#ff9d5a"/>
                <path id="Path_25333" data-name="Path 25333" d="M581.836,367.362c12.863,6.688,25.106,15.007,16.472,33.169s-36.582,64.62-44.491,73.023S531,480.637,526.41,469.521s5.746-25.817,16.446-46.913,28.673-57.739,29.67-58.055S577.439,365.068,581.836,367.362Z" transform="translate(-525.288 -364.488)" fill="#2b2f48"/>
              </g>
              <path id="Path_25334" data-name="Path 25334" d="M541.665,323.674c9.36-.047,19.331,8.73,23.222,21.69,10.9,36.274,14.662,52.176,12.429,108.418-2.176,5.176-51.422,9.758-61.123-6.808,8.809-35.249,10.627-50.128,6.476-92.833-.693-7.138-.97-22.171,4.25-25.906C526.893,328.256,539.188,323.368,541.665,323.674Z" transform="translate(-379.962 -256.774)" fill="#030822"/>
              <path id="Path_25335" data-name="Path 25335" d="M529.847,322.064s7.138,24.677,14.26,28.362c5.54,2.5,13.143-3.01,13.143-3.01a66.146,66.146,0,0,1,2.545,6.973c.484,2.32.023,4.656,7.815,2.7,8.966-2.257,7.381-5.751,7.381-5.751s-2.89-7.106-12.565-25.111c-.251-2.835,5.95-9.452,1.245-13.619s-7.653,5.66-7.653,5.66l-3.918-10.8S538.752,321.144,529.847,322.064Z" transform="translate(-412.837 -282.928)" fill="#ffb680"/>
              <g id="Group_6546" data-name="Group 6546" transform="translate(0 106.065)">
                <path id="Path_25336" data-name="Path 25336" d="M562.482,339.017a3.125,3.125,0,0,1,4.214,1.3l23.317,41.214,48.446-.167a3.008,3.008,0,1,1,.021,6l-50,.167a3.244,3.244,0,0,1-1.627-.46,3.849,3.849,0,0,1-.484-.3,3.352,3.352,0,0,1-.332-.332,2.731,2.731,0,0,1-.392-.526,2.094,2.094,0,0,1-.165-.251l-.026-.021-23.942-42.326a3.13,3.13,0,0,1,.97-4.3Z" transform="translate(-561.046 -338.64)" fill="url(#linear-gradient-2)"/>
                <path id="Path_25337" data-name="Path 25337" d="M562.482,339.017a3.125,3.125,0,0,1,4.214,1.3l23.317,41.214,48.446-.167a3.008,3.008,0,1,1,.021,6l-50,.167a3.244,3.244,0,0,1-1.627-.46,3.849,3.849,0,0,1-.484-.3,3.352,3.352,0,0,1-.332-.332,2.731,2.731,0,0,1-.392-.526,2.094,2.094,0,0,1-.165-.251l-.026-.021-23.942-42.326a3.13,3.13,0,0,1,.97-4.3Z" transform="translate(-561.046 -338.64)" fill="url(#linear-gradient-3)"/>
                <path id="Path_25338" data-name="Path 25338" d="M578.025,359.247a.306.306,0,0,0,.3.3l3.5-.011a.309.309,0,0,0,.306-.3l-.016-3.5a.3.3,0,0,0-.306-.3l-3.494.01a.3.3,0,0,0-.306.3Z" transform="translate(-545.836 -311.514)" fill="#fff"/>
                <g id="Group_6544" data-name="Group 6544" transform="translate(44.355 43.87)">
                  <path id="Path_25339" data-name="Path 25339" d="M572.906,356.859a.307.307,0,0,0,.3.306l4.684-.016a.31.31,0,0,0,.309-.311l-.005-1.13a.307.307,0,0,0-.309-.3l-4.681.016a.307.307,0,0,0-.3.306Z" transform="translate(-572.901 -355.413)" fill="#fff"/>
                  <path id="Path_25340" data-name="Path 25340" d="M572.9,357.771a.3.3,0,0,0,.3.3l4.684-.016a.306.306,0,0,0,.309-.3l-.005-1.132a.309.309,0,0,0-.314-.3l-4.679.016a.307.307,0,0,0-.3.306Z" transform="translate(-572.887 -353.949)" fill="#fff"/>
                </g>
                <g id="Group_6545" data-name="Group 6545" transform="translate(37.67 43.891)">
                  <path id="Path_25341" data-name="Path 25341" d="M575.463,356.867a.3.3,0,0,0,.306.306l4.684-.01a.315.315,0,0,0,.3-.311l-.005-1.13a.306.306,0,0,0-.3-.3l-4.684.016a.311.311,0,0,0-.306.306Z" transform="translate(-575.458 -355.421)" fill="#fff"/>
                  <path id="Path_25342" data-name="Path 25342" d="M575.456,357.784a.319.319,0,0,0,.311.3l4.679-.021a.3.3,0,0,0,.3-.3v-1.13a.308.308,0,0,0-.306-.306l-4.679.021a.3.3,0,0,0-.306.3Z" transform="translate(-575.445 -353.957)" fill="#fff"/>
                </g>
                <path id="Path_25343" data-name="Path 25343" d="M583.5,358.343l-2.069.011-.01-2.683,2.069-.01Zm-16.99.055-2.058.01-.016-2.681,2.063-.01Zm5.665-.016-2.069.005-.01-2.681,2.074-.005Zm-2.83.01-2.069.005-.011-2.681,2.069-.005Zm16.984-.06-2.064.01-.01-2.683,2.064-.011Zm-11.329.04-2.063.005-.005-2.681,2.064-.005Zm-11.592-2.644.256.005.01,2.681-.256-.005a1.344,1.344,0,1,1-.01-2.681Zm14.422,2.634-2.064.008-.005-2.678,2.058-.01Zm2.84,0H578.6l-.016-2.686,2.069-.005Zm8.111-1.376a1.4,1.4,0,0,1-1.436,1.349h-.254l-.005-2.683h.257a1.4,1.4,0,0,1,1.439,1.331Z" transform="translate(-510.549 -311.162)" fill="url(#linear-gradient-4)"/>
              </g>
              <g id="Group_6548" data-name="Group 6548" transform="translate(53.601 249.291)">
                <g id="Group_6547" data-name="Group 6547" transform="translate(33.133)">
                  <path id="Path_25344" data-name="Path 25344" d="M587.384,410.308s3.753-15.094-15.967-16.161c-14.966-.808-16.381,18.481-16.381,18.481-3.382,59.394-13.386,139.293-14.231,147.645l9.337-1.624C550.97,550.875,573.1,459.3,587.384,410.308Z" transform="translate(-540.806 -392.235)" fill="#ff9d5a"/>
                  <path id="Path_25345" data-name="Path 25345" d="M573.72,393.846c17.191,1.917,15.983,15.5,11.061,32.445s-16.849,62.166-21.23,79.557-8.226,35.434-8.226,35.434-2.092,2.963-7.833,2.26-7.266-2.508-7.266-2.508,4.48-52.576,6.128-71.378.714-48.177,6.921-63.155S567.059,393.1,573.72,393.846Z" transform="translate(-539.599 -393.401)" fill="url(#linear-gradient-5)"/>
                </g>
                <path id="Path_25346" data-name="Path 25346" d="M597.632,455.583c-1.567-1.313-22.289,4.185-34.589,7.033s-15.332,10.692.539,10.893l29.973.377s9,.787,7.9-4.658C600.459,464.363,599.06,456.815,597.632,455.583Z" transform="translate(-552.727 -293.271)" fill="#050505"/>
              </g>
              <g id="Group_6549" data-name="Group 6549" transform="translate(22.997 74.89)">
                <path id="Path_25347" data-name="Path 25347" d="M554.821,333s-7.349,34.137-28.443,75.11c0,0-3.146,6.907,3.756,10.744,7.321,4.062,10.831-2.508,10.831-2.508.086-.144.188-.293.28-.445,22.579-37.1,31.529-72.7,27.734-80.823C565.175,326.932,557.29,327.006,554.821,333Z" transform="translate(-419.614 -323.507)" fill="#ffb583"/>
                <path id="Path_25348" data-name="Path 25348" d="M620.428,374.165c-44.565-5.621-80.237-9.063-80.237-9.063l-3.761-7.475s41.29-1.112,87.945.968c0,0,5.545,1.031,4.431,9.392C627.741,375.881,620.585,374.183,620.428,374.165Z" transform="translate(-506.909 -277.271)" fill="#ffb583"/>
                <path id="Path_25349" data-name="Path 25349" d="M604.243,362.237c-9.847-9.884-15.078,1.394-20.586-.923-12.478-5.257-13.4-5.809-14.568-3.531-.578,1.14,8.173,5.092,17.387,9.758,5.743,2.9,9.042,1.679,14.181-.416S607.178,365.179,604.243,362.237Z" transform="translate(-569.062 -278.596)" fill="#ffb583"/>
                <path id="Path_25350" data-name="Path 25350" d="M525.341,406.287s57.372.541,65.765.494c4.7-12.156,19.959-50.175,22.7-64.45,2.8-14.592,8.764-16.783,18.619-15.151,4.143.677,6.693,7.36,7.321,13.04,1.245,11.244-24.729,62.481-34.257,81.427-1.758,3.494-5.3,2.649-10.708,2.134s-18.308-2.341-23.905-2.995-46.084-5.132-46.084-5.132a16,16,0,0,1-1.253-4.65A6.693,6.693,0,0,1,525.341,406.287Z" transform="translate(-483.974 -326.72)" fill="#fcfcfc"/>
              </g>
            </g>
          </g>
        </g>
      </g>
      <g id="Group_6915" data-name="Group 6915" transform="translate(3941.411 -3759.183)">
        <g id="Group_3920" data-name="Group 3920" transform="translate(3.41 3.781)" opacity="0.2">
          <rect id="Rectangle_1505" data-name="Rectangle 1505" width="62.919" height="140.038" rx="4.829"/>
        </g>
        <g id="Group_3922" data-name="Group 3922">
          <rect id="Rectangle_1506" data-name="Rectangle 1506" width="62.919" height="140.038" rx="4.829" fill="#fff"/>
          <path id="Path_19070" data-name="Path 19070" d="M1571.6-84.659a7.262,7.262,0,0,1-7.262,7.262,7.263,7.263,0,0,1-7.263-7.262,7.262,7.262,0,0,1,7.263-7.262,7.261,7.261,0,0,1,7.262,7.263Z" transform="translate(-1544.918 104.743)" fill="#ffcf30"/>
          <circle id="Ellipse_743" data-name="Ellipse 743" cx="7.263" cy="7.263" r="7.263" transform="translate(36.23 12.821)" fill="#ff1a79"/>
          <path id="Path_19071" data-name="Path 19071" d="M1571.6-74.6a7.262,7.262,0,0,1-7.262,7.262,7.264,7.264,0,0,1-7.263-7.261,7.262,7.262,0,0,1,7.263-7.264A7.261,7.261,0,0,1,1571.6-74.6Z" transform="translate(-1544.918 117.109)" fill="#35826f"/>
          <path id="Path_19072" data-name="Path 19072" d="M1582.4-74.6a7.263,7.263,0,0,1-7.261,7.262,7.264,7.264,0,0,1-7.264-7.262,7.262,7.262,0,0,1,7.264-7.263A7.262,7.262,0,0,1,1582.4-74.6Z" transform="translate(-1531.646 117.109)" fill="#b514ff"/>
          <path id="Path_19073" data-name="Path 19073" d="M1571.6-64.536a7.262,7.262,0,0,1-7.263,7.263,7.264,7.264,0,0,1-7.262-7.263,7.262,7.262,0,0,1,7.264-7.263,7.261,7.261,0,0,1,7.261,7.263Z" transform="translate(-1544.918 129.475)" fill="#8ab1ff"/>
          <path id="Path_19074" data-name="Path 19074" d="M1582.4-64.536a7.263,7.263,0,0,1-7.262,7.263,7.264,7.264,0,0,1-7.263-7.262,7.262,7.262,0,0,1,7.263-7.264,7.262,7.262,0,0,1,7.262,7.263Z" transform="translate(-1531.646 129.475)" fill="#7c2aff"/>
          <path id="Path_19075" data-name="Path 19075" d="M1571.6-54.476a7.262,7.262,0,0,1-7.263,7.263,7.264,7.264,0,0,1-7.262-7.263,7.264,7.264,0,0,1,7.263-7.262,7.262,7.262,0,0,1,7.262,7.262Z" transform="translate(-1544.918 141.842)" fill="#5283ff"/>
          <circle id="Ellipse_744" data-name="Ellipse 744" cx="7.263" cy="7.263" r="7.263" transform="translate(36.23 80.103)" fill="#0c11ff"/>
          <g id="Group_3921" data-name="Group 3921" transform="translate(17.43 101.707)">
            <path id="Path_19076" data-name="Path 19076" d="M1583.29-44.778l-5.381-5.381-15.1,15.1a4.59,4.59,0,0,0-1.262,4.093h0a1.4,1.4,0,0,1-.388,1.257l-1.367,1.366a1.19,1.19,0,0,0,0,1.681h0a1.188,1.188,0,0,0,.842.349,1.188,1.188,0,0,0,.842-.349l1.367-1.364a1.4,1.4,0,0,1,1.255-.388h0a4.588,4.588,0,0,0,4.094-1.264Z" transform="translate(-1559.443 54.366)" fill="#8ab1ff"/>
            <path id="Path_19077" data-name="Path 19077" d="M1575.86-43.191l-.972-.972,1.98-1.979a3.458,3.458,0,0,0,0-4.891,3.461,3.461,0,0,0-4.893,0L1570-49.054l-.972-.972a1.034,1.034,0,0,0-1.462,0,1.031,1.031,0,0,0-.3.73,1.031,1.031,0,0,0,.3.73l6.834,6.835a1.034,1.034,0,0,0,1.462,0,1.031,1.031,0,0,0,.3-.73,1.031,1.031,0,0,0-.3-.73Z" transform="translate(-1549.827 52.047)" fill="#ff1a79"/>
          </g>
        </g>
      </g>
      <g id="Group_6916" data-name="Group 6916" transform="translate(3435.499 -4062.003)">
        <g id="Group_3212" data-name="Group 3212" transform="translate(146.103 359.234)">
          <g id="Group_3211" data-name="Group 3211">
            <g id="Group_3210" data-name="Group 3210">
              <path id="Path_17114" data-name="Path 17114" d="M195.569,383.97a23.981,23.981,0,0,1-8.89,18.572,8.236,8.236,0,0,0-3,6.406v2.194a11.555,11.555,0,0,1-3.84,8.665H163.25a3.8,3.8,0,0,1-.29-.258,11.542,11.542,0,0,1-3.55-8.407v-2.194a8.268,8.268,0,0,0-3.05-6.438,23.988,23.988,0,0,1-8.2-13.118c.693.355,1.387.693,2.065,1,8.843,3.953,16.329,3.727,21.477-3.856,0,0,11.746-14.28,20.927-9.1a9.873,9.873,0,0,1,2.516,2.017,23.142,23.142,0,0,1,.424,4.517Z" transform="translate(-145.868 -357.284)" fill="url(#linear-gradient-6)"/>
              <g id="Group_3209" data-name="Group 3209" transform="translate(15.97 25.988)">
                <path id="Path_17115" data-name="Path 17115" d="M165.479,388.619h-2.11a3.032,3.032,0,0,1,0-6.061h.159a2.986,2.986,0,0,1,2.933,3.031v2.049h7.614v-2.049a2.985,2.985,0,0,1,2.932-3.031h.129a3.032,3.032,0,0,1,0,6.061h-2.079v31.458h-.982V388.619h-7.614l-.011,31.948h-.97Zm0-3.031a2,2,0,0,0-1.951-2.049h-.159a2.052,2.052,0,0,0,0,4.1h2.11Zm11.527-2.049a2,2,0,0,0-1.95,2.049v2.049h2.079a2.052,2.052,0,0,0,0-4.1Z" transform="translate(-160.436 -382.558)" fill="#f7b502"/>
              </g>
              <path id="Path_17116" data-name="Path 17116" d="M196.963,380.14a25.651,25.651,0,0,0-50.86,4.739,24.418,24.418,0,0,0,.689,5.875,25.618,25.618,0,0,0,8.752,14.007,8.829,8.829,0,0,1,3.257,6.875v2.343a12.326,12.326,0,0,0,3.791,8.976c.1.1.206.189.31.276a13.406,13.406,0,0,0,17.712,0,12.336,12.336,0,0,0,4.1-9.253v-2.343a8.794,8.794,0,0,1,3.2-6.84,25.6,25.6,0,0,0,9.493-19.831,24.717,24.717,0,0,0-.444-4.824Zm-10.32,24.018a8.421,8.421,0,0,0-2.946,6.478v2.223a11.736,11.736,0,0,1-6.014,10.372,12.189,12.189,0,0,1-11.836,0,10.784,10.784,0,0,1-2.515-1.879,11.839,11.839,0,0,1-3.5-8.494v-2.223a8.488,8.488,0,0,0-3-6.513,24.549,24.549,0,0,1-8.7-18.815c0-13.61,10.889-24.6,24.19-24.276a23.85,23.85,0,0,1,21.95,16.953,24.74,24.74,0,0,1-7.632,26.172Z" transform="translate(-146.103 -359.234)" fill="url(#linear-gradient-7)"/>
              <path id="Path_17117" data-name="Path 17117" d="M170.437,440.8h0a12.98,12.98,0,0,0,12.98-12.98V410.338h-25.96v17.484A12.979,12.979,0,0,0,170.436,440.8Z" transform="translate(-144.806 -353.397)" fill="url(#linear-gradient-8)"/>
              <path id="Path_17118" data-name="Path 17118" d="M157.5,423.482h26.3a1.648,1.648,0,0,0,1.643-1.643h0A1.648,1.648,0,0,0,183.8,420.2H157.5a1.649,1.649,0,0,0-1.643,1.643h0a1.649,1.649,0,0,0,1.643,1.643Z" transform="translate(-144.989 -352.271)" fill="url(#linear-gradient-8)"/>
              <path id="Path_17119" data-name="Path 17119" d="M157.5,413.1h26.3a1.648,1.648,0,0,0,1.643-1.643h0a1.648,1.648,0,0,0-1.643-1.643H157.5a1.649,1.649,0,0,0-1.643,1.643h0A1.649,1.649,0,0,0,157.5,413.1Z" transform="translate(-144.989 -353.457)" fill="url(#linear-gradient-8)"/>
              <path id="Path_17120" data-name="Path 17120" d="M157.5,428.591h26.3a1.648,1.648,0,0,0,1.643-1.643h0A1.648,1.648,0,0,0,183.8,425.3H157.5a1.649,1.649,0,0,0-1.643,1.645h0A1.649,1.649,0,0,0,157.5,428.591Z" transform="translate(-144.989 -351.687)" fill="url(#linear-gradient-8)"/>
            </g>
          </g>
        </g>
      </g>
      <g id="Group_6917" data-name="Group 6917" transform="translate(2903.066 -4137.688)">
        <path id="Path_20617" data-name="Path 20617" d="M736.363,390.51a8.993,8.993,0,1,0-9.472,8.49,8.993,8.993,0,0,0,9.472-8.49Zm-1.382-.077a7.609,7.609,0,1,1-7.181-8.013,7.609,7.609,0,0,1,7.181,8.013Z" transform="translate(15.584 25.507)" fill="#fff"/>
        <path id="Path_20618" data-name="Path 20618" d="M742.269,392.132l2.414-1.949-1.628-4.639-3.1-.01-1.662-1.854.329-3.086-4.431-2.127-2.2,2.187-2.485-.136-1.95-2.414-4.637,1.628-.011,3.105-1.853,1.66-3.088-.329-2.125,4.431,2.187,2.2-.136,2.485-2.416,1.951,1.63,4.637,3.1.012,1.662,1.854-.329,3.086,4.432,2.125,2.2-2.185,2.487.135,1.951,2.416,4.637-1.63.01-3.1,1.856-1.662,3.084.331,2.127-4.433-2.187-2.2Zm-1.347-.688-.2,3.711,1.931,1.947-1.282,2.671-2.727-.29-2.769,2.481-.01,2.744-2.8.98-1.724-2.133-3.711-.2-1.947,1.933L723.014,404l.29-2.729-2.481-2.767-2.742-.012L717.1,395.7l2.133-1.724.2-3.713-1.933-1.947,1.282-2.671,2.729.29,2.767-2.479.011-2.744,2.794-.982,1.724,2.133,3.713.2,1.947-1.931,2.671,1.282-.29,2.727,2.481,2.769,2.742.01.982,2.8Z" transform="translate(12.891 22.814)" fill="#fff"/>
        <path id="Path_20619" data-name="Path 20619" d="M739.087,367.283l.108-1.983,2.047-1.655-1.418-4.036-2.631-.01-1.326-1.482.279-2.615-3.857-1.851-1.868,1.852-1.985-.108-1.653-2.047-4.037,1.416-.008,2.631-1.482,1.328-2.615-.279-1.853,3.857,1.854,1.868-.109,1.985-2.047,1.653,1.418,4.036,2.633.01,1.326,1.482-.279,2.615,3.857,1.851,1.866-1.853,1.985.108,1.654,2.049,4.036-1.418.01-2.633,1.482-1.326,2.615.279,1.851-3.857Zm-1.24-2.673-.177,3.211,1.6,1.612-1.005,2.1-2.258-.238-2.394,2.145-.01,2.271-2.2.771-1.426-1.764-3.211-.177-1.612,1.6-2.1-1.007.24-2.258-2.146-2.394-2.27-.01-.771-2.193,1.764-1.428.177-3.211-1.6-1.61,1.007-2.1,2.258.238,2.394-2.146.008-2.27,2.2-.771,1.428,1.766,3.211.175,1.61-1.6,2.1,1.007-.238,2.256,2.147,2.4,2.269.01.771,2.193Z" transform="translate(13.828)" fill="#fff"/>
        <path id="Path_20620" data-name="Path 20620" d="M734.235,363.881a7.65,7.65,0,1,0-8.057,7.22A7.65,7.65,0,0,0,734.235,363.881Zm-1.38-.077a6.267,6.267,0,1,1-5.915-6.6,6.267,6.267,0,0,1,5.915,6.6Z" transform="translate(16.095 2.266)" fill="#fff"/>
        <path id="Path_20621" data-name="Path 20621" d="M728.036,378.685a11.408,11.408,0,1,0-12.016,10.767A11.408,11.408,0,0,0,728.036,378.685Zm-1.38-.075a10.026,10.026,0,1,1-9.462-10.56,10.026,10.026,0,0,1,9.462,10.56Z" transform="translate(3.46 12.26)" fill="#fff"/>
        <path id="Path_20622" data-name="Path 20622" d="M730.917,366l-5.465-2.623-2.806,2.786-3.388-.186-2.485-3.077-5.719,2.01-.015,3.955-2.525,2.264-3.932-.419-2.625,5.465,2.786,2.808-.186,3.386-3.075,2.487,2.01,5.717,3.953.015,2.264,2.527-.419,3.932,5.467,2.623,2.806-2.786,3.388.186,2.483,3.077,5.721-2.01.014-3.955,2.527-2.264,3.932.419,2.623-5.465-2.786-2.806.186-3.388,3.077-2.485-2.01-5.719-3.953-.013-2.266-2.529Zm-1.478.824-.38,3.574,3.084,3.442,3.594.013,1.36,3.876-2.794,2.258-.254,4.614,2.531,2.552-1.778,3.7-3.572-.379-3.442,3.084-.013,3.594-3.878,1.361-2.258-2.794-4.614-.254L714.476,398l-3.705-1.779.379-3.574-3.082-3.44-3.594-.015-1.362-3.876,2.794-2.258.254-4.614-2.531-2.55,1.78-3.7,3.572.379,3.44-3.082.015-3.594,3.876-1.362,2.26,2.794,4.614.254,2.55-2.531Z" transform="translate(0 8.799)" fill="#fff"/>
      </g>
    </g>
  </g>
</svg>
