<svg xmlns="http://www.w3.org/2000/svg" xmlns:xlink="http://www.w3.org/1999/xlink" version="1.1" x="0px" y="0px" viewBox="0 0 275.493 398.41" enable-background="new 0 0 275.493 398.41" xml:space="preserve" style="fill: rgb(0, 0, 0);">
<g id="__id3_s45sixd6d">
	<g id="__id4_s45sixd6d">
		<path d="M272.363,382.882c-42.237-35.03-84.483-70.057-126.722-105.086c-4.211-3.496-8.892-3.418-13.111,0    C89.259,312.826,45.988,347.852,2.717,382.882c5.276,2.187,10.552,4.371,15.828,6.556c0-126.722,0-253.444,0-380.166    c-3.091,3.091-6.182,6.181-9.272,9.272c85.512,0,171.024,0,256.535,0c-3.091-3.091-6.181-6.181-9.272-9.272    c0,126.722,0,253.444,0,380.166c0,11.96,18.547,11.96,18.547,0c0-126.722,0-253.444,0-380.166c0-5.056-4.221-9.272-9.273-9.272    C180.297,0,94.785,0,9.272,0C4.217,0,0,4.217,0,9.272c0,126.722,0,253.444,0,380.166c0,8.729,9.821,11.423,15.829,6.558    c43.27-35.031,86.542-70.057,129.812-105.088c-4.371,0-8.742,0-13.111,0c42.237,35.031,84.483,70.057,126.721,105.088    C268.385,403.57,281.583,390.526,272.363,382.882z" style="fill: rgb(34, 34, 34);"/>
		<path d="M267.967,311.794c-40.866-32.881-81.735-65.771-122.604-98.651c-4.307-3.465-8.799-3.397-13.112,0    c-41.713,32.882-83.427,65.771-125.141,98.651c-9.387,7.4,3.83,20.429,13.112,13.111c41.713-32.882,83.427-65.771,125.141-98.652    c-4.371,0-8.742,0-13.112,0c40.87,32.883,81.736,65.771,122.604,98.652C264.081,332.326,277.29,319.292,267.967,311.794    L267.967,311.794z" style="fill: rgb(34, 34, 34);"/>
	</g>
</g>
</svg>